<svg width="21" height="21" viewBox="0 0 21 21" fill="none" xmlns="http://www.w3.org/2000/svg">
<path d="M11.9652 1.9957C11.9652 1.57693 11.7988 1.17532 11.5027 0.879211C11.2066 0.583101 10.805 0.416748 10.3862 0.416748C9.96747 0.416748 9.56586 0.583101 9.26975 0.879211C8.97364 1.17532 8.80728 1.57693 8.80728 1.9957V8.8378H1.96518C1.54642 8.8378 1.1448 9.00415 0.848694 9.30026C0.552583 9.59637 0.38623 9.99799 0.38623 10.4167C0.38623 10.8355 0.552583 11.2371 0.848694 11.5332C1.1448 11.8293 1.54642 11.9957 1.96518 11.9957H8.80728V18.8378C8.80728 19.2566 8.97364 19.6582 9.26975 19.9543C9.56586 20.2504 9.96747 20.4167 10.3862 20.4167C10.805 20.4167 11.2066 20.2504 11.5027 19.9543C11.7988 19.6582 11.9652 19.2566 11.9652 18.8378V11.9957H18.8073C19.226 11.9957 19.6277 11.8293 19.9238 11.5332C20.2199 11.2371 20.3862 10.8355 20.3862 10.4167C20.3862 9.99799 20.2199 9.59637 19.9238 9.30026C19.6277 9.00415 19.226 8.8378 18.8073 8.8378H11.9652V1.9957Z" fill="white"/>
</svg>
