<svg width="21" height="14" viewBox="0 0 21 14" fill="none" xmlns="http://www.w3.org/2000/svg">
<path d="M20.2719 1.38125C20.1871 1.24124 20.0597 1.12399 19.9035 1.04213C19.7474 0.960265 19.5684 0.916913 19.3859 0.916748H1.38418C1.20201 0.9174 1.02349 0.961072 0.867817 1.04307C0.712145 1.12506 0.585213 1.24228 0.500671 1.38211C0.416129 1.52194 0.377176 1.6791 0.388001 1.83668C0.398826 1.99426 0.45902 2.1463 0.562108 2.27645L9.56294 13.5423C9.65469 13.6578 9.77746 13.7522 9.92067 13.8174C10.0639 13.8827 10.2232 13.9167 10.385 13.9167C10.5468 13.9167 10.7062 13.8827 10.8494 13.8174C10.9926 13.7522 11.1153 13.6578 11.2071 13.5423L20.2079 2.27645C20.312 2.14657 20.373 1.99444 20.3843 1.8366C20.3956 1.67877 20.3567 1.52128 20.2719 1.38125ZM10.385 11.5266L3.29236 2.64996H17.4777L10.385 11.5266Z" fill="white"/>
</svg>
