<svg width="28" height="21" viewBox="0 0 28 21" fill="none" xmlns="http://www.w3.org/2000/svg">
<path d="M16.8166 8.59805C16.8166 9.2256 16.3079 9.73433 15.6803 9.73433C15.0528 9.73433 14.544 9.2256 14.544 8.59805C14.544 7.9705 15.0528 7.46177 15.6803 7.46177C16.3079 7.46177 16.8166 7.9705 16.8166 8.59805Z" fill="white"/>
<path d="M18.1801 12.2342C17.9553 12.2342 17.7355 12.1674 17.5485 12.0425C17.3616 11.9175 17.216 11.7398 17.1301 11.5321C17.0441 11.3243 17.0218 11.0956 17.0659 10.8751C17.11 10.6547 17.2185 10.4522 17.3777 10.2934C17.5369 10.1346 17.7396 10.0266 17.9602 9.98308C18.1808 9.93956 18.4094 9.96246 18.6169 10.0489C18.8245 10.1353 19.0018 10.2814 19.1263 10.4687C19.2508 10.6559 19.317 10.8759 19.3164 11.1007C19.3157 11.4016 19.1956 11.6899 18.9826 11.9023C18.7696 12.1148 18.481 12.2342 18.1801 12.2342Z" fill="white"/>
<path d="M19.3164 6.09823C19.3164 6.72578 18.8077 7.23451 18.1801 7.23451C17.5526 7.23451 17.0438 6.72578 17.0438 6.09823C17.0438 5.47068 17.5526 4.96195 18.1801 4.96195C18.8077 4.96195 19.3164 5.47068 19.3164 6.09823Z" fill="white"/>
<path d="M20.6799 9.73433C21.3075 9.73433 21.8162 9.2256 21.8162 8.59805C21.8162 7.9705 21.3075 7.46177 20.6799 7.46177C20.0524 7.46177 19.5437 7.9705 19.5437 8.59805C19.5437 9.2256 20.0524 9.73433 20.6799 9.73433Z" fill="white"/>
<path d="M9.08987 5.87098C9.08987 5.36894 8.68288 4.96195 8.18084 4.96195C7.6788 4.96195 7.27182 5.36894 7.27182 5.87098V7.68903H5.45377C4.95173 7.68903 4.54474 8.09601 4.54474 8.59805C4.54474 9.10009 4.95173 9.50708 5.45377 9.50708H7.27182V11.3251C7.27182 11.8272 7.6788 12.2342 8.18084 12.2342C8.68288 12.2342 9.08987 11.8272 9.08987 11.3251V9.50708H10.9079C11.41 9.50708 11.8169 9.10009 11.8169 8.59805C11.8169 8.09601 11.41 7.68903 10.9079 7.68903H9.08987V5.87098Z" fill="white"/>
<path fill-rule="evenodd" clip-rule="evenodd" d="M8.18324 0.416824C7.57742 0.413902 6.97413 0.495188 6.39068 0.658351L6.38439 0.66011L6.37813 0.661958C4.83456 1.11763 3.66737 2.26342 2.76957 3.82187C1.87569 5.37353 1.20244 7.41065 0.665274 9.81016L0.665255 9.81024C0.115604 12.2666 -0.127414 14.536 0.0655052 16.3246C0.252477 18.0581 0.900413 19.6871 2.48055 20.2351L2.48104 20.2353C3.52688 20.5973 4.50406 20.3809 5.34871 19.884C6.16232 19.4053 6.88773 18.6501 7.536 17.8437L7.53646 17.8431L7.53692 17.8426C8.14687 17.0813 8.79728 16.6106 9.68819 16.3124C10.6164 16.0018 11.845 15.8651 13.635 15.8651C15.4256 15.8651 16.6349 16.002 17.5439 16.311C18.4144 16.607 19.0515 17.0754 19.6676 17.8431C20.3212 18.6575 21.0588 19.4072 21.878 19.8834C22.7207 20.3734 23.6977 20.5969 24.7276 20.2457L24.728 20.2456C26.4073 19.672 27.0676 18.0733 27.2273 16.3109C27.3883 14.5327 27.0844 12.276 26.5393 9.81241C26.0079 7.40989 25.3342 5.37209 24.4385 3.82017C23.539 2.2617 22.3694 1.11755 20.8286 0.662054L20.827 0.661592L20.8254 0.661136C20.2607 0.496394 19.6751 0.414107 19.0869 0.416824C18.2976 0.417221 17.5687 0.622788 16.8952 0.812717L16.8951 0.812746L16.8949 0.812793L16.8948 0.812815C16.7851 0.843748 16.6769 0.874279 16.5701 0.903426C15.7772 1.11987 14.8826 1.32585 13.635 1.32585C12.3874 1.32585 11.4921 1.11985 10.699 0.903405C10.5918 0.874169 10.4833 0.843552 10.3732 0.812518C9.69987 0.622683 8.97119 0.41724 8.18324 0.416824ZM4.34491 4.7294C5.10061 3.41762 5.94431 2.68772 6.88673 2.40744L2.43943 10.2072C2.95957 7.88385 3.58367 6.05082 4.34491 4.7294ZM6.88673 2.40744L2.43941 10.2073C1.90961 12.575 1.71062 14.6235 1.87307 16.1296C2.04142 17.6905 2.54598 18.3332 3.07574 18.5172C3.50707 18.6665 3.92893 18.6099 4.4268 18.317C4.9556 18.0059 5.51605 17.4546 6.11869 16.705C6.92896 15.694 7.86324 15.006 9.11125 14.5884C10.3223 14.1831 11.7872 14.0471 13.635 14.0471C15.4822 14.0471 16.9324 14.1829 18.1291 14.5898C19.3642 15.0097 20.279 15.7002 21.0855 16.7051C21.6817 17.448 22.2541 17.9991 22.7918 18.3117C23.3058 18.6106 23.7324 18.6641 24.1404 18.5251C24.7917 18.3027 25.2801 17.6535 25.4166 16.1469C25.5517 14.656 25.2991 12.6225 24.7642 10.2051L24.7642 10.2051C24.2502 7.88181 23.626 6.04944 22.8639 4.72897C22.1059 3.41579 21.2583 2.68544 20.3147 2.40598C19.9181 2.29044 19.5068 2.2328 19.0937 2.23486L19.0914 2.23487H19.0891C18.5687 2.23487 18.1062 2.36364 17.4196 2.5548C17.3029 2.58727 17.1798 2.62155 17.0489 2.6573C16.1768 2.89537 15.1082 3.1439 13.635 3.1439C12.1618 3.1439 11.0927 2.89538 10.2203 2.65732C10.089 2.62147 9.96555 2.58711 9.84861 2.55457L9.84851 2.55454L9.84837 2.5545C9.16207 2.36347 8.70007 2.23487 8.18084 2.23487H8.17849L8.17614 2.23486C7.74042 2.23261 7.3065 2.29069 6.88673 2.40744Z" fill="white"/>
</svg>
