<svg width="21" height="21" viewBox="0 0 21 21" fill="none" xmlns="http://www.w3.org/2000/svg">
<path d="M6.68473 1.875H6.4764C6.59098 1.875 6.68473 1.78125 6.68473 1.66667V1.875H14.6014V1.66667C14.6014 1.78125 14.6951 1.875 14.8097 1.875H14.6014V3.75H16.4764V1.66667C16.4764 0.747396 15.729 0 14.8097 0H6.4764C5.55713 0 4.80973 0.747396 4.80973 1.66667V3.75H6.68473V1.875ZM19.8097 3.75H1.4764C1.01546 3.75 0.643066 4.1224 0.643066 4.58333V5.41667C0.643066 5.53125 0.736816 5.625 0.8514 5.625H2.42432L3.06755 19.2448C3.10921 20.1328 3.84359 20.8333 4.73161 20.8333H16.5545C17.4451 20.8333 18.1769 20.1354 18.2186 19.2448L18.8618 5.625H20.4347C20.5493 5.625 20.6431 5.53125 20.6431 5.41667V4.58333C20.6431 4.1224 20.2707 3.75 19.8097 3.75ZM16.354 18.9583H4.93213L4.30192 5.625H16.9842L16.354 18.9583Z" fill="white"/>
</svg>
