<svg width="20" height="20" viewBox="0 0 20 20" fill="none" xmlns="http://www.w3.org/2000/svg">
<path d="M13.9408 4.32457L16.0588 6.44158M16.4668 13.9166V16.9166C16.4668 17.447 16.2561 17.9557 15.881 18.3308C15.5059 18.7059 14.9972 18.9166 14.4668 18.9166H3.4668C2.93636 18.9166 2.42766 18.7059 2.05258 18.3308C1.67751 17.9557 1.4668 17.447 1.4668 16.9166V5.91657C1.4668 5.38614 1.67751 4.87743 2.05258 4.50236C2.42766 4.12729 2.93636 3.91657 3.4668 3.91657H6.4668M15.3028 2.45957L9.5758 8.18658C9.27989 8.48207 9.07807 8.85856 8.9958 9.26858L8.4668 11.9166L11.1148 11.3866C11.5248 11.3046 11.9008 11.1036 12.1968 10.8076L17.9238 5.08057C18.0959 4.90848 18.2324 4.70417 18.3255 4.47931C18.4187 4.25446 18.4666 4.01346 18.4666 3.77007C18.4666 3.52669 18.4187 3.28569 18.3255 3.06084C18.2324 2.83598 18.0959 2.63167 17.9238 2.45957C17.7517 2.28748 17.5474 2.15096 17.3225 2.05782C17.0977 1.96469 16.8567 1.91675 16.6133 1.91675C16.3699 1.91675 16.1289 1.96469 15.9041 2.05782C15.6792 2.15096 15.4749 2.28748 15.3028 2.45957Z" stroke="white" stroke-width="2" stroke-linecap="round" stroke-linejoin="round"/>
</svg>
