<svg width="21" height="21" viewBox="0 0 21 21" fill="none" xmlns="http://www.w3.org/2000/svg">
<path d="M18.386 10.5C18.386 8.37827 17.5431 6.34344 16.0428 4.84315C14.5425 3.34285 12.5077 2.5 10.386 2.5C8.26425 2.5 6.22942 3.34285 4.72913 4.84315C3.22884 6.34344 2.38599 8.37827 2.38599 10.5C2.38599 12.6217 3.22884 14.6566 4.72913 16.1569C6.22942 17.6571 8.26425 18.5 10.386 18.5C12.5077 18.5 14.5425 17.6571 16.0428 16.1569C17.5431 14.6566 18.386 12.6217 18.386 10.5ZM20.386 10.5C20.386 13.1522 19.3324 15.6957 17.4571 17.5711C15.5817 19.4464 13.0382 20.5 10.386 20.5C9.07277 20.5 7.77241 20.2413 6.55915 19.7388C5.3459 19.2362 4.2435 18.4997 3.31492 17.5711C1.43955 15.6957 0.385986 13.1522 0.385986 10.5C0.385986 7.84784 1.43955 5.3043 3.31492 3.42893C5.19028 1.55357 7.73382 0.5 10.386 0.5C11.6992 0.5 12.9996 0.758658 14.2128 1.2612C15.4261 1.76375 16.5285 2.50035 17.4571 3.42893C18.3856 4.35752 19.1222 5.45991 19.6248 6.67317C20.1273 7.88642 20.386 9.18678 20.386 10.5ZM8.38599 8C8.38599 8.8 7.68599 9.5 6.88599 9.5C6.08599 9.5 5.38599 8.8 5.38599 8C5.38599 7.2 6.08599 6.5 6.88599 6.5C7.68599 6.5 8.38599 7.2 8.38599 8ZM15.386 8C15.386 8.8 14.686 9.5 13.886 9.5C13.086 9.5 12.386 8.8 12.386 8C12.386 7.2 13.086 6.5 13.886 6.5C14.686 6.5 15.386 7.2 15.386 8ZM10.386 15.73C8.63599 15.73 7.09599 15 6.19599 13.92L7.61599 12.5C8.06599 13.22 9.13599 13.73 10.386 13.73C11.636 13.73 12.706 13.22 13.156 12.5L14.576 13.92C13.676 15 12.136 15.73 10.386 15.73Z" fill="#88898B"/>
</svg>
