<svg width="19" height="21" viewBox="0 0 19 21" fill="none" xmlns="http://www.w3.org/2000/svg">
<path d="M10.6431 0.416753C12.1253 0.415246 13.5893 0.743926 14.9286 1.37892C16.268 2.0139 17.449 2.93926 18.3861 4.08775L12.0571 10.4168L18.3861 16.7458C17.449 17.8942 16.268 18.8196 14.9286 19.4546C13.5893 20.0896 12.1253 20.4183 10.6431 20.4168C5.12007 20.4168 0.643066 15.9398 0.643066 10.4168C0.643066 4.89375 5.12007 0.416753 10.6431 0.416753ZM10.6431 2.41675C9.38099 2.41698 8.13688 2.7158 7.01238 3.28879C5.88788 3.86179 4.9149 4.69271 4.17294 5.71366C3.43099 6.7346 2.9411 7.91661 2.74333 9.16309C2.54555 10.4096 2.64549 11.6852 3.03498 12.8856C3.42446 14.0861 4.09245 15.1774 4.98435 16.0703C5.87625 16.9633 6.96677 17.6325 8.16678 18.0234C9.3668 18.4143 10.6423 18.5157 11.889 18.3194C13.1357 18.123 14.3183 17.6345 15.3401 16.8938L15.5481 16.7368L9.22807 10.4168L15.5481 4.09575L15.3401 3.93975C14.0589 3.00837 12.529 2.4802 10.9461 2.42275L10.6431 2.41675ZM10.6431 3.41675C11.0409 3.41675 11.4224 3.57479 11.7037 3.85609C11.985 4.1374 12.1431 4.51893 12.1431 4.91675C12.1431 5.31458 11.985 5.69611 11.7037 5.97741C11.4224 6.25872 11.0409 6.41675 10.6431 6.41675C10.2452 6.41675 9.86371 6.25872 9.58241 5.97741C9.3011 5.69611 9.14307 5.31458 9.14307 4.91675C9.14307 4.51893 9.3011 4.1374 9.58241 3.85609C9.86371 3.57479 10.2452 3.41675 10.6431 3.41675Z" fill="white"/>
</svg>
