<svg width="23" height="21" viewBox="0 0 23 21" fill="none" xmlns="http://www.w3.org/2000/svg">
<path d="M18.6431 13.6667H4.64307C3.84742 13.6667 3.08436 13.9828 2.52175 14.5454C1.95914 15.108 1.64307 15.8711 1.64307 16.6667C1.64307 17.4624 1.95914 18.2255 2.52175 18.7881C3.08436 19.3507 3.84742 19.6667 4.64307 19.6667H18.6431C19.4387 19.6667 20.2018 19.3507 20.7644 18.7881C21.327 18.2255 21.6431 17.4624 21.6431 16.6667C21.6431 15.8711 21.327 15.108 20.7644 14.5454C20.2018 13.9828 19.4387 13.6667 18.6431 13.6667ZM17.6431 9.66675C18.7039 9.66675 19.7213 9.24532 20.4715 8.49518C21.2216 7.74503 21.6431 6.72761 21.6431 5.66675C21.6431 4.60588 21.2216 3.58847 20.4715 2.83832C19.7213 2.08818 18.7039 1.66675 17.6431 1.66675C16.5822 1.66675 15.5648 2.08818 14.8146 2.83832C14.0645 3.58847 13.6431 4.60588 13.6431 5.66675C13.6431 6.72761 14.0645 7.74503 14.8146 8.49518C15.5648 9.24532 16.5822 9.66675 17.6431 9.66675ZM1.64307 5.66675L6.14307 1.16675L10.6431 5.66675L6.14307 10.1667L1.64307 5.66675Z" stroke="white" stroke-width="2" stroke-linecap="round" stroke-linejoin="round"/>
</svg>
