<svg width="20" height="21" viewBox="0 0 20 21" fill="none" xmlns="http://www.w3.org/2000/svg">
<path d="M19.3755 8.57075C19.4985 9.22975 19.5655 9.91875 19.5655 10.6378C19.5655 16.2618 15.8015 20.2608 10.1165 20.2608C8.82362 20.2611 7.54337 20.0068 6.34886 19.5122C5.15435 19.0177 4.069 18.2926 3.15482 17.3784C2.24064 16.4642 1.51556 15.3789 1.02099 14.1844C0.526421 12.9898 0.272067 11.7096 0.272461 10.4168C0.272067 9.12391 0.526421 7.84366 1.02099 6.64915C1.51556 5.45465 2.24064 4.36929 3.15482 3.45512C4.069 2.54094 5.15435 1.81585 6.34886 1.32128C7.54337 0.826714 8.82362 0.57236 10.1165 0.572754C12.7745 0.572754 14.9955 1.55075 16.6995 3.13875L13.9245 5.91375V5.90675C12.8915 4.92275 11.5805 4.41775 10.1165 4.41775C6.86846 4.41775 4.22846 7.16176 4.22846 10.4108C4.22846 13.6588 6.86846 16.4088 10.1165 16.4088C13.0635 16.4088 15.0695 14.7238 15.4815 12.4098H10.1165V8.57075H19.3765H19.3755Z" fill="white"/>
</svg>
