<svg width="21" height="21" viewBox="0 0 21 21" fill="none" xmlns="http://www.w3.org/2000/svg">
<path d="M20.3862 10.3978C20.3964 15.9075 15.9032 20.4128 10.3935 20.4167C8.01384 20.4184 5.82804 19.5889 4.11034 18.2025C3.66369 17.8421 3.6303 17.1727 4.03619 16.7668L4.4905 16.3125C4.83764 15.9653 5.39183 15.9273 5.77643 16.2325C7.04195 17.2367 8.64352 17.8361 10.3862 17.8361C14.4872 17.8361 17.8056 14.5171 17.8056 10.4167C17.8056 6.31574 14.4866 2.99739 10.3862 2.99739C8.41792 2.99739 6.63022 3.76227 5.30284 5.01078L7.34937 7.05731C7.75582 7.46376 7.46796 8.15868 6.8932 8.15868H1.03139C0.675061 8.15868 0.38623 7.86985 0.38623 7.51352V1.65171C0.38623 1.07695 1.08115 0.789086 1.4876 1.1955L3.4784 3.1863C5.27369 1.47062 7.70687 0.416748 10.3862 0.416748C15.9027 0.416748 20.376 4.88368 20.3862 10.3978ZM13.0914 13.5746L13.4875 13.0653C13.8156 12.6434 13.7396 12.0354 13.3177 11.7073L11.6765 10.4308V6.2232C11.6765 5.68872 11.2433 5.25545 10.7088 5.25545H10.0636C9.52917 5.25545 9.0959 5.68872 9.0959 6.2232V11.693L11.7334 13.7444C12.1553 14.0725 12.7632 13.9965 13.0914 13.5746Z" fill="white"/>
</svg>
