<svg width="21" height="21" viewBox="0 0 21 21" fill="none" xmlns="http://www.w3.org/2000/svg">
<path d="M20.0135 10.7403L11.0135 0.740328C10.6345 0.318328 9.90649 0.318328 9.52749 0.740328L0.527492 10.7403C0.397948 10.8839 0.312916 11.0621 0.282736 11.2531C0.252555 11.4441 0.278527 11.6398 0.357492 11.8163C0.517492 12.1773 0.875492 12.4093 1.27049 12.4093H3.27049V19.4093C3.27049 19.6745 3.37585 19.9289 3.56339 20.1164C3.75092 20.304 4.00528 20.4093 4.27049 20.4093H7.27049C7.53571 20.4093 7.79006 20.304 7.9776 20.1164C8.16513 19.9289 8.27049 19.6745 8.27049 19.4093V15.4093H12.2705V19.4093C12.2705 19.6745 12.3758 19.9289 12.5634 20.1164C12.7509 20.304 13.0053 20.4093 13.2705 20.4093H16.2705C16.5357 20.4093 16.7901 20.304 16.9776 20.1164C17.1651 19.9289 17.2705 19.6745 17.2705 19.4093V12.4093H19.2705C19.4642 12.4102 19.6539 12.3546 19.8165 12.2495C19.9792 12.1443 20.1077 11.9941 20.1865 11.8172C20.2652 11.6403 20.2908 11.4443 20.2601 11.2531C20.2294 11.0618 20.1437 10.8837 20.0135 10.7403Z" fill="white"/>
</svg>
