<svg width="23" height="23" viewBox="0 0 23 23" fill="none" xmlns="http://www.w3.org/2000/svg">
<path d="M21.6431 17.4167V5.41675C21.6431 4.35588 21.2216 3.33847 20.4715 2.58832C19.7213 1.83818 18.7039 1.41675 17.6431 1.41675H5.64307C4.5822 1.41675 3.56478 1.83818 2.81464 2.58832C2.06449 3.33847 1.64307 4.35588 1.64307 5.41675V17.4167C1.64307 18.4776 2.06449 19.495 2.81464 20.2452C3.56478 20.9953 4.5822 21.4167 5.64307 21.4167M21.6431 17.4167C21.6431 18.4776 21.2216 19.495 20.4715 20.2452C19.7213 20.9953 18.7039 21.4167 17.6431 21.4167H5.64307M21.6431 17.4167V17.5497C21.6431 18.5753 21.2357 19.5589 20.5104 20.2841C19.7852 21.0093 18.8017 21.4167 17.7761 21.4167H5.64307M21.6431 17.4167C21.6431 16.9507 21.4681 16.7717 21.1531 16.4267L17.1231 12.0317C16.9352 11.8269 16.7068 11.6634 16.4522 11.5517C16.1977 11.4401 15.9227 11.3827 15.6447 11.3833C15.3668 11.3838 15.092 11.4423 14.8379 11.555C14.5839 11.6677 14.3561 11.8321 14.1691 12.0377L5.64307 21.4167M10.6431 7.91675C10.6431 9.29746 9.52378 10.4167 8.14307 10.4167C6.76235 10.4167 5.64307 9.29746 5.64307 7.91675C5.64307 6.53604 6.76235 5.41675 8.14307 5.41675C9.52378 5.41675 10.6431 6.53604 10.6431 7.91675Z" stroke="white" stroke-width="2" stroke-linecap="round" stroke-linejoin="round"/>
</svg>
