<svg width="6" height="21" viewBox="0 0 6 21" fill="none" xmlns="http://www.w3.org/2000/svg">
<path d="M0.565449 18.1476V17.6004C0.577519 17.5562 0.597636 17.516 0.605683 17.4717C0.78271 16.321 1.74027 15.4117 2.86276 15.3353C4.11805 15.2468 5.18021 15.9629 5.52622 17.1297C5.57048 17.2826 5.60267 17.4435 5.6429 17.6004V18.1476C5.63083 18.1838 5.61071 18.216 5.60669 18.2562C5.43368 19.3184 4.66925 20.1271 3.62318 20.3564C3.54271 20.3725 3.46224 20.3966 3.38178 20.4167H2.8346C2.79839 20.4047 2.76218 20.3846 2.72597 20.3805C1.6799 20.2116 0.883294 19.4672 0.641873 18.4332C0.617733 18.3327 0.589589 18.2401 0.565449 18.1476ZM5.64292 2.68187L5.6429 3.22909C5.63083 3.27335 5.61071 3.31358 5.60669 3.35784C5.42564 4.51656 4.46406 5.42182 3.32947 5.49424C2.07821 5.5747 1.02007 4.8505 0.678083 3.67971C0.633826 3.53082 0.60164 3.37795 0.56543 3.22907V2.68189C0.5775 2.64568 0.597616 2.6135 0.605663 2.57729C0.798784 1.53122 1.40631 0.847247 2.42019 0.521355C2.55296 0.477098 2.69378 0.452958 2.83058 0.416748H3.37775C3.41396 0.428818 3.45017 0.448935 3.48638 0.452958C4.53648 0.625962 5.32908 1.36626 5.57048 2.40026C5.59464 2.49682 5.61878 2.58936 5.64292 2.68187ZM5.6429 10.1412V10.6884C5.63083 10.7326 5.61071 10.7729 5.60267 10.8171C5.42161 11.9718 4.42382 12.9012 3.29729 12.9495C2.02993 13.0058 0.955695 12.2414 0.653943 11.0625C0.621756 10.9378 0.593593 10.8131 0.56543 10.6884V10.1412C0.5775 10.0969 0.597616 10.0567 0.605663 10.0124C0.782691 8.85774 1.7845 7.92832 2.91104 7.87604C4.1784 7.81569 5.25263 8.58415 5.55439 9.76299C5.58657 9.89174 5.61474 10.0165 5.6429 10.1412Z" fill="white"/>
</svg>
