<svg width="21" height="21" viewBox="0 0 21 21" fill="none" xmlns="http://www.w3.org/2000/svg">
<path d="M10.2725 19.25C7.95182 19.25 5.72622 18.3281 4.08528 16.6872C2.44433 15.0462 1.52246 12.8206 1.52246 10.5C1.52246 8.17936 2.44433 5.95376 4.08528 4.31282C5.72622 2.67187 7.95182 1.75 10.2725 1.75C12.5931 1.75 14.8187 2.67187 16.4596 4.31282C18.1006 5.95376 19.0225 8.17936 19.0225 10.5C19.0225 12.8206 18.1006 15.0462 16.4596 16.6872C14.8187 18.3281 12.5931 19.25 10.2725 19.25ZM10.2725 20.5C12.9246 20.5 15.4682 19.4464 17.3435 17.5711C19.2189 15.6957 20.2725 13.1522 20.2725 10.5C20.2725 7.84784 19.2189 5.3043 17.3435 3.42893C15.4682 1.55357 12.9246 0.5 10.2725 0.5C7.6203 0.5 5.07676 1.55357 3.20139 3.42893C1.32603 5.3043 0.272461 7.84784 0.272461 10.5C0.272461 13.1522 1.32603 15.6957 3.20139 17.5711C5.07676 19.4464 7.6203 20.5 10.2725 20.5Z" fill="white"/>
<path d="M11.705 6.9325C11.763 6.8743 11.832 6.82812 11.9079 6.79661C11.9839 6.7651 12.0653 6.74888 12.1475 6.74888C12.2297 6.74888 12.3111 6.7651 12.387 6.79661C12.4629 6.82812 12.5319 6.8743 12.59 6.9325L13.3975 7.74125L14.205 6.9325C14.3223 6.81514 14.4815 6.74921 14.6475 6.74921C14.8134 6.74921 14.9726 6.81514 15.09 6.9325C15.2073 7.04986 15.2733 7.20903 15.2733 7.375C15.2733 7.54097 15.2073 7.70014 15.09 7.8175L14.2812 8.625L15.09 9.4325C15.2073 9.54986 15.2733 9.70903 15.2733 9.875C15.2733 10.041 15.2073 10.2001 15.09 10.3175C14.9726 10.4349 14.8134 10.5008 14.6475 10.5008C14.4815 10.5008 14.3223 10.4349 14.205 10.3175L13.3975 9.50875L12.59 10.3175C12.5319 10.3756 12.4629 10.4217 12.3869 10.4532C12.311 10.4846 12.2296 10.5008 12.1475 10.5008C12.0653 10.5008 11.9839 10.4846 11.908 10.4532C11.8321 10.4217 11.7631 10.3756 11.705 10.3175C11.6469 10.2594 11.6008 10.1904 11.5693 10.1145C11.5379 10.0386 11.5217 9.95718 11.5217 9.875C11.5217 9.79282 11.5379 9.71144 11.5693 9.63552C11.6008 9.5596 11.6469 9.49061 11.705 9.4325L12.5137 8.625L11.705 7.8175C11.6468 7.75944 11.6006 7.69047 11.5691 7.61454C11.5376 7.53861 11.5213 7.45721 11.5213 7.375C11.5213 7.29279 11.5376 7.21139 11.5691 7.13546C11.6006 7.05953 11.6468 6.99056 11.705 6.9325ZM5.45496 6.9325C5.51302 6.8743 5.58199 6.82812 5.65792 6.79661C5.73385 6.7651 5.81525 6.74888 5.89746 6.74888C5.97967 6.74888 6.06107 6.7651 6.137 6.79661C6.21293 6.82812 6.2819 6.8743 6.33996 6.9325L7.14746 7.74125L7.95496 6.9325C8.01307 6.87439 8.08206 6.82829 8.15798 6.79685C8.23391 6.7654 8.31528 6.74921 8.39746 6.74921C8.47964 6.74921 8.56102 6.7654 8.63694 6.79685C8.71286 6.82829 8.78185 6.87439 8.83996 6.9325C8.89807 6.99061 8.94417 7.0596 8.97561 7.13552C9.00706 7.21144 9.02325 7.29282 9.02325 7.375C9.02325 7.45718 9.00706 7.53856 8.97561 7.61448C8.94417 7.6904 8.89807 7.75939 8.83996 7.8175L8.03121 8.625L8.83996 9.4325C8.89807 9.49061 8.94417 9.5596 8.97561 9.63552C9.00706 9.71144 9.02325 9.79282 9.02325 9.875C9.02325 9.95718 9.00706 10.0386 8.97561 10.1145C8.94417 10.1904 8.89807 10.2594 8.83996 10.3175C8.78185 10.3756 8.71286 10.4217 8.63694 10.4532C8.56102 10.4846 8.47964 10.5008 8.39746 10.5008C8.31528 10.5008 8.23391 10.4846 8.15798 10.4532C8.08206 10.4217 8.01307 10.3756 7.95496 10.3175L7.14746 9.50875L6.33996 10.3175C6.28185 10.3756 6.21286 10.4217 6.13694 10.4532C6.06102 10.4846 5.97964 10.5008 5.89746 10.5008C5.81528 10.5008 5.73391 10.4846 5.65798 10.4532C5.58206 10.4217 5.51307 10.3756 5.45496 10.3175C5.39685 10.2594 5.35076 10.1904 5.31931 10.1145C5.28786 10.0386 5.27167 9.95718 5.27167 9.875C5.27167 9.79282 5.28786 9.71144 5.31931 9.63552C5.35076 9.5596 5.39685 9.49061 5.45496 9.4325L6.26371 8.625L5.45496 7.8175C5.39676 7.75944 5.35058 7.69047 5.31907 7.61454C5.28756 7.53861 5.27134 7.45721 5.27134 7.375C5.27134 7.29279 5.28756 7.21139 5.31907 7.13546C5.35058 7.05953 5.39676 6.99056 5.45496 6.9325ZM12.7725 14.25C12.7725 14.913 12.5091 15.5489 12.0402 16.0178C11.5714 16.4866 10.9355 16.75 10.2725 16.75C9.60942 16.75 8.97353 16.4866 8.50469 16.0178C8.03585 15.5489 7.77246 14.913 7.77246 14.25C7.77246 13.587 8.03585 12.9511 8.50469 12.4822C8.97353 12.0134 9.60942 11.75 10.2725 11.75C10.9355 11.75 11.5714 12.0134 12.0402 12.4822C12.5091 12.9511 12.7725 13.587 12.7725 14.25Z" fill="white"/>
</svg>
