<svg width="21" height="21" viewBox="0 0 21 21" fill="none" xmlns="http://www.w3.org/2000/svg">
<path d="M1.02007 13.6877L3.02007 17.1477C3.15285 17.3773 3.37134 17.5446 3.6275 17.6131C3.88366 17.6815 4.15651 17.6454 4.38607 17.5127L5.78207 16.7067C6.36207 17.1637 7.00307 17.5387 7.67707 17.8187V19.4167C7.67707 19.682 7.78243 19.9363 7.96996 20.1239C8.1575 20.3114 8.41185 20.4167 8.67707 20.4167H12.6771C12.9423 20.4167 13.1966 20.3114 13.3842 20.1239C13.5717 19.9363 13.6771 19.682 13.6771 19.4167V17.8187C14.3563 17.5359 14.9939 17.1618 15.5721 16.7067L16.9681 17.5127C17.4451 17.7877 18.0591 17.6227 18.3341 17.1477L20.3341 13.6877C20.4657 13.4579 20.5012 13.1854 20.4328 12.9296C20.3644 12.6738 20.1978 12.4553 19.9691 12.3217L18.5971 11.5287C18.7043 10.7912 18.7036 10.0421 18.5951 9.30475L19.9671 8.51175C20.4431 8.23675 20.6081 7.62175 20.3321 7.14575L18.3321 3.68575C18.1993 3.45624 17.9808 3.28887 17.7246 3.22042C17.4685 3.15198 17.1956 3.18806 16.9661 3.32075L15.5701 4.12675C14.9926 3.67113 14.3553 3.29696 13.6761 3.01475V1.41675C13.6761 1.15153 13.5707 0.897178 13.3832 0.709641C13.1956 0.522105 12.9413 0.416748 12.6761 0.416748H8.67607C8.41085 0.416748 8.1565 0.522105 7.96896 0.709641C7.78143 0.897178 7.67607 1.15153 7.67607 1.41675V3.01475C6.99679 3.29756 6.35926 3.67167 5.78107 4.12675L4.38607 3.32075C4.27244 3.25492 4.14694 3.21213 4.01676 3.19485C3.88658 3.17757 3.75426 3.18612 3.62739 3.22002C3.50052 3.25392 3.38157 3.31251 3.27736 3.39242C3.17315 3.47233 3.08572 3.57201 3.02007 3.68575L1.02007 7.14575C0.888457 7.37555 0.852968 7.64805 0.921332 7.9039C0.989695 8.15974 1.15637 8.37822 1.38507 8.51175L2.75707 9.30475C2.6492 10.0422 2.6492 10.7913 2.75707 11.5287L1.38507 12.3217C0.909069 12.5967 0.744069 13.2117 1.02007 13.6877ZM10.6761 6.41675C12.8821 6.41675 14.6761 8.21075 14.6761 10.4167C14.6761 12.6227 12.8821 14.4167 10.6761 14.4167C8.47007 14.4167 6.67607 12.6227 6.67607 10.4167C6.67607 8.21075 8.47007 6.41675 10.6761 6.41675Z" fill="white"/>
</svg>
