<svg width="24" height="21" viewBox="0 0 24 21" fill="none" xmlns="http://www.w3.org/2000/svg">
<path d="M12.0573 0.5C11.6198 0.5 11.1866 0.586167 10.7825 0.753582C10.3783 0.920997 10.011 1.16638 9.7017 1.47572C9.39236 1.78507 9.14698 2.15231 8.97956 2.55648C8.81215 2.96066 8.72598 3.39385 8.72598 3.83133C8.72598 4.26881 8.81215 4.702 8.97956 5.10617C9.14698 5.51035 9.39236 5.87759 9.7017 6.18693C10.011 6.49628 10.3783 6.74166 10.7825 6.90908C11.1866 7.07649 11.6198 7.16266 12.0573 7.16266C12.9408 7.16266 13.7882 6.81168 14.4129 6.18693C15.0377 5.56219 15.3886 4.71485 15.3886 3.83133C15.3886 2.94781 15.0377 2.10047 14.4129 1.47572C13.7882 0.850978 12.9408 0.5 12.0573 0.5ZM19.5603 2.164C18.897 2.164 18.2609 2.42749 17.7918 2.89652C17.3228 3.36555 17.0593 4.00169 17.0593 4.66499C17.0593 5.3283 17.3228 5.96444 17.7918 6.43347C18.2609 6.9025 18.897 7.16599 19.5603 7.16599C20.2236 7.16599 20.8597 6.9025 21.3288 6.43347C21.7978 5.96444 22.0613 5.3283 22.0613 4.66499C22.0613 4.00169 21.7978 3.36555 21.3288 2.89652C20.8597 2.42749 20.2236 2.164 19.5603 2.164ZM4.55432 2.164C3.89101 2.164 3.25487 2.42749 2.78584 2.89652C2.31682 3.36555 2.05332 4.00169 2.05332 4.66499C2.05332 5.3283 2.31682 5.96444 2.78584 6.43347C3.25487 6.9025 3.89101 7.16599 4.55432 7.16599C5.21762 7.16599 5.85376 6.9025 6.32279 6.43347C6.79182 5.96444 7.05531 5.3283 7.05531 4.66499C7.05531 4.00169 6.79182 3.36555 6.32279 2.89652C5.85376 2.42749 5.21762 2.164 4.55432 2.164ZM7.05531 10.489C7.05839 10.0488 7.23542 9.62771 7.54777 9.31754C7.86012 9.00738 8.28246 8.83331 8.72265 8.83332H15.392C15.8342 8.83332 16.2583 9.00899 16.571 9.32168C16.8836 9.63436 17.0593 10.0585 17.0593 10.5007V15.5027C17.0592 16.0274 16.9771 16.5489 16.8159 17.0483C16.4467 18.1799 15.6862 19.1428 14.6709 19.7642C13.6556 20.3855 12.4521 20.6246 11.2764 20.4384C10.1007 20.2522 9.0299 19.653 8.25626 18.7484C7.48262 17.8438 7.05682 16.693 7.05531 15.5027V10.489ZM5.38798 10.5007C5.38798 9.89208 5.54971 9.32352 5.83483 8.83332H2.05332C1.61111 8.83332 1.18702 9.00899 0.874337 9.32168C0.561651 9.63436 0.385987 10.0585 0.385987 10.5007V14.669C0.385759 15.3514 0.553096 16.0235 0.873302 16.6262C1.19351 17.2288 1.65679 17.7436 2.22246 18.1254C2.78812 18.5072 3.43888 18.7443 4.11757 18.8158C4.79626 18.8873 5.48213 18.791 6.11494 18.5355C5.63505 17.5961 5.38585 16.5559 5.38798 15.501V10.5007ZM18.7266 10.5007V15.5027C18.7266 16.5948 18.4649 17.6252 17.9997 18.5355C18.6325 18.791 19.3184 18.8873 19.997 18.8158C20.6757 18.7443 21.3265 18.5072 21.8922 18.1254C22.4578 17.7436 22.9211 17.2288 23.2413 16.6262C23.5615 16.0235 23.7289 15.3514 23.7286 14.669V10.5007C23.7286 10.0585 23.553 9.63436 23.2403 9.32168C22.9276 9.00899 22.5035 8.83332 22.0613 8.83332H18.2798C18.5632 9.32352 18.7266 9.89208 18.7266 10.5007Z" fill="white"/>
</svg>
